<?xml version="1.0" standalone="no"?>
<!DOCTYPE svg PUBLIC "-//W3C//DTD SVG 20010904//EN"
 "http://www.w3.org/TR/2001/REC-SVG-20010904/DTD/svg10.dtd">
<svg version="1.0" xmlns="http://www.w3.org/2000/svg"
 width="2084.000000pt" height="2084.000000pt" viewBox="0 0 2084.000000 2084.000000"
 preserveAspectRatio="xMidYMid meet">
<metadata>
Created by potrace 1.11, written by Peter Selinger 2001-2013
</metadata>
<g transform="translate(0.000000,2084.000000) scale(0.100000,-0.100000)"
fill="#000000" stroke="none">
<path d="M20270 16951 c-151 -87 -363 -209 -470 -271 -107 -61 -220 -126 -250
-142 -30 -17 -59 -34 -65 -38 -5 -5 -37 -23 -70 -40 -33 -18 -67 -39 -76 -46
-8 -8 -18 -14 -22 -14 -5 0 -205 -113 -247 -139 -8 -6 -37 -22 -65 -37 -27
-14 -57 -32 -66 -40 -8 -8 -18 -14 -21 -14 -3 0 -88 -48 -189 -106 -101 -58
-201 -116 -224 -128 -76 -43 -310 -178 -335 -194 -14 -9 -27 -17 -30 -17 -3 0
-48 -26 -100 -57 -79 -46 -442 -255 -675 -389 -33 -19 -68 -38 -77 -44 -9 -5
-29 -17 -45 -26 -15 -9 -71 -41 -123 -71 -218 -126 -579 -334 -635 -365 -33
-19 -73 -42 -90 -52 -38 -22 -565 -325 -624 -359 -121 -67 -266 -159 -274
-173 -7 -11 33 -131 147 -440 86 -233 164 -441 171 -461 8 -21 22 -55 30 -75
8 -21 53 -144 100 -273 47 -129 92 -251 100 -270 8 -19 89 -237 180 -485 92
-247 180 -486 197 -530 17 -44 61 -165 99 -270 38 -104 73 -199 79 -210 5 -11
41 -108 80 -215 142 -389 223 -605 229 -612 4 -4 51 68 106 160 95 160 371
638 423 732 14 25 51 90 82 145 31 55 72 127 90 160 18 33 74 134 125 225 50
91 109 197 130 235 21 39 60 111 88 160 82 148 228 415 314 575 20 36 48 88
63 115 15 28 46 86 70 130 24 44 55 103 70 130 15 28 45 84 67 125 22 41 90
168 151 282 61 113 132 246 158 295 91 172 169 317 289 538 18 33 47 87 65
120 18 33 83 152 145 265 61 113 128 234 147 270 34 62 58 106 118 215 15 28
48 89 74 138 25 48 67 126 92 175 26 48 64 119 84 157 107 200 461 887 465
905 1 3 36 77 79 164 86 177 149 323 144 336 -2 5 -127 -62 -278 -149z"/>
<path d="M12628 15925 c-2 -1 -64 -6 -139 -9 -75 -4 -149 -9 -165 -11 -16 -2
-63 -6 -104 -10 -41 -3 -86 -8 -100 -10 -14 -2 -47 -6 -75 -10 -69 -8 -206
-32 -290 -51 -38 -8 -81 -17 -95 -20 -14 -2 -32 -7 -40 -10 -8 -3 -26 -8 -38
-10 -92 -18 -439 -138 -587 -204 -87 -38 -379 -182 -415 -205 -19 -12 -75 -46
-125 -75 -252 -149 -569 -385 -785 -585 -128 -118 -311 -302 -390 -392 -47
-53 -92 -103 -101 -112 -60 -60 -304 -375 -464 -600 -64 -90 -88 -111 -132
-116 -15 -1 -95 14 -178 35 -82 21 -163 41 -180 44 -16 2 -57 10 -90 15 -33 6
-69 13 -81 15 -12 2 -45 7 -75 11 -30 3 -61 8 -69 10 -27 7 -183 21 -350 31
-192 12 -501 7 -655 -11 -16 -2 -59 -6 -95 -10 -36 -4 -72 -8 -80 -10 -8 -1
-40 -6 -70 -10 -72 -9 -89 -11 -190 -29 -160 -28 -205 -37 -265 -53 -33 -8
-67 -16 -75 -18 -143 -29 -508 -149 -700 -230 -250 -106 -527 -252 -745 -393
-94 -61 -304 -209 -315 -221 -3 -4 -23 -19 -45 -35 -143 -105 -450 -389 -595
-551 -226 -252 -430 -546 -587 -847 -76 -144 -95 -201 -94 -283 0 -78 5 -98
49 -205 35 -86 164 -411 227 -575 23 -60 138 -353 254 -650 117 -297 271 -691
343 -875 71 -184 136 -348 143 -365 7 -16 47 -120 90 -230 42 -110 83 -213 90
-230 7 -16 57 -142 110 -280 167 -431 330 -846 345 -880 5 -11 56 -141 114
-290 57 -148 110 -283 117 -300 7 -16 13 -34 15 -40 1 -5 25 -66 52 -135 28
-69 76 -190 107 -270 31 -80 97 -248 147 -375 50 -126 129 -327 175 -445 46
-118 88 -224 93 -235 5 -11 31 -78 59 -150 99 -256 220 -561 238 -600 46 -98
36 -104 124 72 331 657 784 1176 1387 1587 254 173 608 361 882 468 41 16 84
33 95 38 66 31 437 153 497 164 13 2 60 13 104 24 110 29 214 50 354 72 36 6
76 13 90 15 14 2 53 7 88 10 35 4 72 8 82 10 41 8 264 18 410 18 195 1 381
-10 550 -32 47 -6 103 -13 125 -16 22 -3 54 -8 70 -12 17 -3 40 -7 52 -9 11
-1 29 -4 40 -8 10 -3 38 -8 63 -11 24 -4 48 -9 52 -11 3 -2 28 -9 55 -14 72
-14 79 -16 203 -50 63 -17 180 -53 258 -79 143 -47 144 -47 158 -27 8 12 37
55 63 96 385 595 550 822 789 1089 90 100 252 264 332 336 36 32 81 72 100 90
59 53 261 209 345 266 301 206 584 351 943 485 151 56 418 142 462 148 8 1 33
7 56 14 107 31 438 89 609 107 257 26 652 22 885 -10 19 -2 55 -7 80 -10 41
-5 239 -39 285 -49 11 -3 52 -12 90 -20 39 -9 81 -19 95 -22 66 -14 326 -99
573 -187 l209 -75 -7 35 c-3 19 -13 49 -20 67 -15 33 -37 91 -165 426 -45 118
-90 235 -100 260 -10 25 -48 124 -84 220 -37 96 -71 184 -76 195 -5 11 -109
281 -231 600 -220 576 -418 1093 -625 1630 -59 154 -115 300 -124 325 -9 25
-21 54 -25 65 -34 84 -235 615 -235 621 0 4 -9 26 -19 48 -10 23 -60 151 -111
286 -51 135 -103 274 -117 310 -13 36 -28 74 -33 85 -5 11 -86 225 -180 475
-95 250 -187 493 -205 540 -18 47 -49 130 -70 185 -20 55 -40 109 -45 120 -10
24 -19 47 -126 333 -139 370 -145 379 -269 437 -282 131 -778 283 -1040 319
-11 2 -38 6 -60 9 -22 4 -58 9 -80 12 -22 2 -60 7 -85 10 -108 13 -181 17
-437 20 -150 1 -273 1 -275 0z"/>
<path d="M15418 8395 c-2 -2 -39 -6 -83 -9 -96 -6 -151 -12 -315 -37 -174 -26
-255 -40 -360 -64 -357 -80 -769 -243 -1068 -422 -43 -25 -86 -51 -97 -57 -73
-41 -397 -274 -430 -310 -6 -6 -39 -35 -75 -65 -97 -82 -228 -210 -393 -383
-143 -152 -424 -524 -553 -733 -115 -186 -183 -303 -275 -469 -57 -104 -109
-190 -115 -193 -6 -2 -40 9 -75 25 -199 91 -501 197 -644 226 -5 1 -19 5 -30
9 -11 3 -31 8 -45 11 -14 2 -70 14 -125 25 -55 11 -120 23 -145 26 -25 3 -52
8 -60 10 -14 4 -108 15 -175 20 -180 16 -248 19 -425 19 -180 0 -398 -9 -448
-19 -9 -1 -51 -6 -92 -10 -41 -4 -77 -8 -80 -10 -3 -2 -32 -6 -65 -9 -33 -4
-67 -9 -75 -11 -8 -2 -31 -7 -50 -10 -230 -37 -540 -124 -776 -216 -179 -70
-446 -211 -508 -270 -6 -5 1327 -9 3215 -9 l3224 0 49 83 c85 143 227 393 299
527 23 41 45 77 49 78 4 2 8 12 8 22 0 9 7 23 15 30 8 7 15 16 15 20 0 4 46
92 103 196 95 174 129 236 240 444 22 41 54 102 72 135 18 33 60 114 95 180
34 66 75 143 90 170 38 68 167 319 320 620 139 273 203 412 195 424 -4 8 -400
13 -407 6z"/>
<path d="M4015 7594 c-193 -111 -524 -299 -570 -324 -64 -35 -107 -60 -173
-99 -29 -17 -55 -31 -57 -31 -2 0 -49 -27 -105 -60 -56 -33 -103 -60 -106 -60
-2 0 -33 -18 -69 -40 -36 -22 -67 -40 -69 -40 -3 0 -31 -15 -63 -34 -70 -41
-563 -319 -648 -366 -33 -18 -64 -36 -70 -40 -10 -7 -67 -40 -165 -93 -30 -16
-59 -33 -65 -37 -14 -10 -674 -388 -760 -435 -110 -60 -516 -294 -675 -388
l-145 -87 2324 0 c2208 0 2323 1 2318 18 -3 9 -38 100 -77 202 -39 102 -75
196 -80 210 -4 14 -52 140 -105 280 -53 140 -110 291 -127 335 -120 322 -217
578 -227 600 -5 11 -28 72 -51 135 -23 63 -46 124 -50 135 -5 11 -28 70 -51
130 -22 61 -44 115 -48 122 -4 9 -30 -1 -86 -33z"/>
</g>
</svg>
